<svg xmlns="http://www.w3.org/2000/svg" viewBox="0 0 860 680" preserveAspectRatio="xMinYMin meet">
    <defs>
        <linearGradient id="grad2" x1="0%" y1="10%" x2="100%" y2="0%">
            <stop offset="0%" style="stop-color:rgb(234, 57, 26);stop-opacity:1"/>
            <stop offset="100%" style="stop-color:rgb(248, 130, 110);stop-opacity:1"/>
        </linearGradient>
        <linearGradient id="grad1" x1="0%" y1="10%" x2="100%" y2="0%">
            <stop offset="0%" style="stop-color:rgb(110, 180, 248);stop-opacity:1"/>
            <stop offset="100%" style="stop-color:rgb(78, 138, 198);stop-opacity:1"/>
        </linearGradient>
        <linearGradient id="RedSquare" x1="0%" y1="0%" x2="100%" y2="100%">
            <stop offset="0%" style="stop-color:rgb(228, 113, 102);stop-opacity:1"/>
            <stop offset="100%" style="stop-color:rgb(170, 61, 47);stop-opacity:1"/>
        </linearGradient>
        <linearGradient id="BlueSquare" x1="0%" y1="0%" x2="100%" y2="100%">
            <stop offset="0%" style="stop-color:rgb(102, 169, 228);stop-opacity:1"/>
            <stop offset="100%" style="stop-color:rgb(58, 122, 178);stop-opacity:1"/>
        </linearGradient>
    </defs>
    <g>
        <g transform="translate(73 580)"><!--Aang-->
            <rect x="0" y="-490" width="397.6" height="40" fill="url(#grad2)"/>
            <rect x="397.6" y="-490" width="302.4" height="40" fill="url(#grad1)"/>
            <line x1="397.6" x2="397.6" y1="-490" y2="-450" stroke="black"/><!--Sokka-->
            <rect x="0" y="-440" width="388.22" height="40" fill="url(#grad2)"/>
            <rect x="388.22" y="-440" width="311.78" height="40" fill="url(#grad1)"/>
            <line x1="388.22" x2="388.22" y1="-440" y2="-400" stroke="black"/><!--Katara-->
            <rect x="0" y="-390" width="404.74" height="40" fill="url(#grad2)"/>
            <rect x="404.74" y="-390" width="295.26" height="40" fill="url(#grad1)"/>
            <line x1="404.74" x2="404.74" y1="-390" y2="-350" stroke="black"/><!--Zuko-->
            <rect x="0" y="-340" width="383.04" height="40" fill="url(#grad2)"/>
            <rect x="383.04" y="-340" width="316.96" height="40" fill="url(#grad1)"/>
            <line x1="383.04" x2="383.04" y1="-340" y2="-300" stroke="black"/><!--Toph-->
            <rect x="0" y="-290" width="400.96" height="40" fill="url(#grad2)"/>
            <rect x="400.96" y="-290" width="299.04" height="40" fill="url(#grad1)"/>
            <line x1="400.96" x2="400.96" y1="-290" y2="-250" stroke="black"/><!--Iroh-->
            <rect x="0" y="-240" width="373.31" height="40" fill="url(#grad2)"/>
            <rect x="373.31" y="-240" width="326.69" height="40" fill="url(#grad1)"/>
            <line x1="373.31" x2="373.31" y1="-240" y2="-200" stroke="black"/><!--Azula-->
            <rect x="0" y="-190" width="364.49" height="40" fill="url(#grad2)"/>
            <rect x="364.49" y="-190" width="335.51" height="40" fill="url(#grad1)"/>
            <line x1="364.49" x2="364.49" y1="-190" y2="-150" stroke="black"/><!--Jet-->
            <rect x="0" y="-140" width="480.9" height="40" fill="url(#grad2)"/>
            <rect x="480.9" y="-140" width="219.1" height="40" fill="url(#grad1)"/>
            <line x1="480.9" x2="480.9" y1="-140" y2="-100" stroke="black"/><!--Zhao-->
            <rect x="0" y="-90" width="386.05" height="40" fill="url(#grad2)"/>
            <rect x="386.05" y="-90" width="313.95" height="40" fill="url(#grad1)"/>
            <line x1="386.05" x2="386.05" y1="-90" y2="-50" stroke="black"/><!--Suki-->
            <rect x="0" y="-40" width="396.62" height="40" fill="url(#grad2)"/>
            <rect x="396.62" y="-40" width="303.38" height="40" fill="url(#grad1)"/>
            <line x1="396.62" x2="396.62" y1="-40" y2="0" stroke="black"/>
            <line x1="0" x2="700" y1="-500" y2="-500" stroke="black" stroke-width="6"/>
            <line x1="0" x2="700" y1="10" y2="10" stroke="black" stroke-width="6"/>
            <line x1="0" x2="0" y1="13" y2="-503" stroke="black" stroke-width="6"/>
            <line x1="700" x2="700" y1="13" y2="-503" stroke="black" stroke-width="6"/>
            <text x="20" y="-464" font-size="20">1737</text>
            <text x="20" y="-414" font-size="20">1554</text>
            <text x="20" y="-364" font-size="20">1397</text>
            <text x="20" y="-314" font-size="20">712</text>
            <text x="20" y="-264" font-size="20">464</text>
            <text x="20" y="-214" font-size="20">336</text>
            <text x="20" y="-164" font-size="20">163</text>
            <text x="20" y="-114" font-size="20">134</text>
            <text x="20" y="-64" font-size="20">107</text>
            <text x="20" y="-14" font-size="20">102</text>
            <text x="640" y="-464" font-size="20">1321</text>
            <text x="640" y="-414" font-size="20">1248</text>
            <text x="640" y="-364" font-size="20">1019</text>
            <text x="650" y="-314" font-size="20">589</text>
            <text x="650" y="-264" font-size="20">346</text>
            <text x="650" y="-214" font-size="20">294</text>
            <text x="650" y="-164" font-size="20">150</text>
            <text x="660" y="-114" font-size="20">61</text>
            <text x="660" y="-64" font-size="20">87</text>
            <text x="660" y="-14" font-size="20">78</text>
            <text x="-55" y="-468" font-size="20">Aang</text>
            <text x="-62" y="-418" font-size="20">Sokka</text>
            <text x="-66" y="-368" font-size="20">Katara</text>
            <text x="-55" y="-318" font-size="20">Zuko</text>
            <text x="-55" y="-268" font-size="20">Toph</text>
            <text x="-48" y="-218" font-size="20">Iroh</text>
            <text x="-63" y="-168" font-size="20">Azula</text>
            <text x="-38" y="-118" font-size="20">Jet</text>
            <text x="-55" y="-68" font-size="20">Zhao</text>
            <text x="-51" y="-18" font-size="20">Suki</text>
            <text x="220" y="-518" font-size="25">Speech</text>
            <text x="355" y="-518" font-size="25">Action</text>
            <rect x="430" y="-538" width="25" height="25" stroke="black" fill="url(#BlueSquare)"/>
            <rect x="300" y="-538" width="25" height="25" stroke="black" fill="url(#RedSquare)"/>
            <text x="155" y="-550" font-size="30">Speech Count vs Action Count</text>
            <g>
                <line x1="8.8" x2="13.8" y1="0" y2="0" stroke="black" stroke-width="2" transform="translate(-8 -153) rotate(90 350 0)"/>
                <line x1="17.6" x2="22.6" y1="0" y2="0" stroke="black" stroke-width="2" transform="translate(-8 -153) rotate(90 350 0)"/>
                <line x1="26.4" x2="31.4" y1="0" y2="0" stroke="black" stroke-width="2" transform="translate(-8 -153) rotate(90 350 0)"/>
                <line x1="35.2" x2="40.2" y1="0" y2="0" stroke="black" stroke-width="2" transform="translate(-8 -153) rotate(90 350 0)"/>
                <line x1="44" x2="49" y1="0" y2="0" stroke="black" stroke-width="2" transform="translate(-8 -153) rotate(90 350 0)"/>
                <line x1="52.8" x2="57.8" y1="0" y2="0" stroke="black" stroke-width="2" transform="translate(-8 -153) rotate(90 350 0)"/>
                <line x1="61.6" x2="66.6" y1="0" y2="0" stroke="black" stroke-width="2" transform="translate(-8 -153) rotate(90 350 0)"/>
                <line x1="70.4" x2="75.4" y1="0" y2="0" stroke="black" stroke-width="2" transform="translate(-8 -153) rotate(90 350 0)"/>
                <line x1="79.2" x2="84.2" y1="0" y2="0" stroke="black" stroke-width="2" transform="translate(-8 -153) rotate(90 350 0)"/>
                <line x1="88" x2="93" y1="0" y2="0" stroke="black" stroke-width="2" transform="translate(-8 -153) rotate(90 350 0)"/>
                <line x1="96.8" x2="101.8" y1="0" y2="0" stroke="black" stroke-width="2" transform="translate(-8 -153) rotate(90 350 0)"/>
                <line x1="105.6" x2="110.6" y1="0" y2="0" stroke="black" stroke-width="2" transform="translate(-8 -153) rotate(90 350 0)"/>
                <line x1="114.4" x2="119.4" y1="0" y2="0" stroke="black" stroke-width="2" transform="translate(-8 -153) rotate(90 350 0)"/>
                <line x1="123.2" x2="128.2" y1="0" y2="0" stroke="black" stroke-width="2" transform="translate(-8 -153) rotate(90 350 0)"/>
                <line x1="132" x2="137" y1="0" y2="0" stroke="black" stroke-width="2" transform="translate(-8 -153) rotate(90 350 0)"/>
                <line x1="140.8" x2="145.8" y1="0" y2="0" stroke="black" stroke-width="2" transform="translate(-8 -153) rotate(90 350 0)"/>
                <line x1="149.6" x2="154.6" y1="0" y2="0" stroke="black" stroke-width="2" transform="translate(-8 -153) rotate(90 350 0)"/>
                <line x1="158.4" x2="163.4" y1="0" y2="0" stroke="black" stroke-width="2" transform="translate(-8 -153) rotate(90 350 0)"/>
                <line x1="167.2" x2="172.2" y1="0" y2="0" stroke="black" stroke-width="2" transform="translate(-8 -153) rotate(90 350 0)"/>
                <line x1="176" x2="181" y1="0" y2="0" stroke="black" stroke-width="2" transform="translate(-8 -153) rotate(90 350 0)"/>
                <line x1="184.8" x2="189.8" y1="0" y2="0" stroke="black" stroke-width="2" transform="translate(-8 -153) rotate(90 350 0)"/>
                <line x1="193.6" x2="198.6" y1="0" y2="0" stroke="black" stroke-width="2" transform="translate(-8 -153) rotate(90 350 0)"/>
                <line x1="202.4" x2="207.4" y1="0" y2="0" stroke="black" stroke-width="2" transform="translate(-8 -153) rotate(90 350 0)"/>
                <line x1="211.2" x2="216.2" y1="0" y2="0" stroke="black" stroke-width="2" transform="translate(-8 -153) rotate(90 350 0)"/>
                <line x1="220" x2="225" y1="0" y2="0" stroke="black" stroke-width="2" transform="translate(-8 -153) rotate(90 350 0)"/>
                <line x1="228.8" x2="233.8" y1="0" y2="0" stroke="black" stroke-width="2" transform="translate(-8 -153) rotate(90 350 0)"/>
                <line x1="237.6" x2="242.6" y1="0" y2="0" stroke="black" stroke-width="2" transform="translate(-8 -153) rotate(90 350 0)"/>
                <line x1="246.4" x2="251.4" y1="0" y2="0" stroke="black" stroke-width="2" transform="translate(-8 -153) rotate(90 350 0)"/>
                <line x1="255.2" x2="260.2" y1="0" y2="0" stroke="black" stroke-width="2" transform="translate(-8 -153) rotate(90 350 0)"/>
                <line x1="264" x2="269" y1="0" y2="0" stroke="black" stroke-width="2" transform="translate(-8 -153) rotate(90 350 0)"/>
                <line x1="272.8" x2="277.8" y1="0" y2="0" stroke="black" stroke-width="2" transform="translate(-8 -153) rotate(90 350 0)"/>
                <line x1="281.6" x2="286.6" y1="0" y2="0" stroke="black" stroke-width="2" transform="translate(-8 -153) rotate(90 350 0)"/>
                <line x1="290.4" x2="295.4" y1="0" y2="0" stroke="black" stroke-width="2" transform="translate(-8 -153) rotate(90 350 0)"/>
                <line x1="299.2" x2="304.2" y1="0" y2="0" stroke="black" stroke-width="2" transform="translate(-8 -153) rotate(90 350 0)"/>
                <line x1="308" x2="313" y1="0" y2="0" stroke="black" stroke-width="2" transform="translate(-8 -153) rotate(90 350 0)"/>
                <line x1="316.8" x2="321.8" y1="0" y2="0" stroke="black" stroke-width="2" transform="translate(-8 -153) rotate(90 350 0)"/>
                <line x1="325.6" x2="330.6" y1="0" y2="0" stroke="black" stroke-width="2" transform="translate(-8 -153) rotate(90 350 0)"/>
                <line x1="334.4" x2="339.4" y1="0" y2="0" stroke="black" stroke-width="2" transform="translate(-8 -153) rotate(90 350 0)"/>
                <line x1="343.2" x2="348.2" y1="0" y2="0" stroke="black" stroke-width="2" transform="translate(-8 -153) rotate(90 350 0)"/>
                <line x1="352" x2="357" y1="0" y2="0" stroke="black" stroke-width="2" transform="translate(-8 -153) rotate(90 350 0)"/>
                <line x1="360.8" x2="365.8" y1="0" y2="0" stroke="black" stroke-width="2" transform="translate(-8 -153) rotate(90 350 0)"/>
                <line x1="369.6" x2="374.6" y1="0" y2="0" stroke="black" stroke-width="2" transform="translate(-8 -153) rotate(90 350 0)"/>
                <line x1="378.4" x2="383.4" y1="0" y2="0" stroke="black" stroke-width="2" transform="translate(-8 -153) rotate(90 350 0)"/>
                <line x1="387.2" x2="392.2" y1="0" y2="0" stroke="black" stroke-width="2" transform="translate(-8 -153) rotate(90 350 0)"/>
                <line x1="396" x2="401" y1="0" y2="0" stroke="black" stroke-width="2" transform="translate(-8 -153) rotate(90 350 0)"/>
                <line x1="404.8" x2="409.8" y1="0" y2="0" stroke="black" stroke-width="2" transform="translate(-8 -153) rotate(90 350 0)"/>
                <line x1="413.6" x2="418.6" y1="0" y2="0" stroke="black" stroke-width="2" transform="translate(-8 -153) rotate(90 350 0)"/>
                <line x1="422.4" x2="427.4" y1="0" y2="0" stroke="black" stroke-width="2" transform="translate(-8 -153) rotate(90 350 0)"/>
                <line x1="431.2" x2="436.2" y1="0" y2="0" stroke="black" stroke-width="2" transform="translate(-8 -153) rotate(90 350 0)"/>
                <line x1="440" x2="445" y1="0" y2="0" stroke="black" stroke-width="2" transform="translate(-8 -153) rotate(90 350 0)"/>
                <line x1="448.8" x2="453.8" y1="0" y2="0" stroke="black" stroke-width="2" transform="translate(-8 -153) rotate(90 350 0)"/>
                <line x1="457.6" x2="462.6" y1="0" y2="0" stroke="black" stroke-width="2" transform="translate(-8 -153) rotate(90 350 0)"/>
                <line x1="466.4" x2="471.4" y1="0" y2="0" stroke="black" stroke-width="2" transform="translate(-8 -153) rotate(90 350 0)"/>
                <line x1="475.2" x2="480.2" y1="0" y2="0" stroke="black" stroke-width="2" transform="translate(-8 -153) rotate(90 350 0)"/>
                <line x1="484" x2="489" y1="0" y2="0" stroke="black" stroke-width="2" transform="translate(-8 -153) rotate(90 350 0)"/>
                <line x1="492.8" x2="497.8" y1="0" y2="0" stroke="black" stroke-width="2" transform="translate(-8 -153) rotate(90 350 0)"/>
                <line x1="501.6" x2="506.6" y1="0" y2="0" stroke="black" stroke-width="2" transform="translate(-8 -153) rotate(90 350 0)"/>
                <line x1="510.4" x2="515.4" y1="0" y2="0" stroke="black" stroke-width="2" transform="translate(-8 -153) rotate(90 350 0)"/>
            </g>
        </g>
    </g>
</svg>