<?xml version="1.0" encoding="utf-8"?>
<!-- Generator: Adobe Illustrator 26.0.2, SVG Export Plug-In . SVG Version: 6.00 Build 0)  -->
<svg version="1.1" id="Layer_1" xmlns="http://www.w3.org/2000/svg" xmlns:xlink="http://www.w3.org/1999/xlink" x="0px" y="0px"
	 viewBox="0 0 768 768" style="enable-background:new 0 0 768 768;" xml:space="preserve">
<style type="text/css">
	.st0{fill:#4590A1;}
	.st1{fill:#2D90A5;}
	.st2{fill:#2991A8;}
</style>
<g>
	<polygon class="st0" points="134.99,426.93 107.83,477.86 134.99,576.3 194.39,661.17 289.45,707 394.68,707 472.76,642.5 
		505.01,557.63 491.43,476.16 437.12,426.93 376.01,399.78 306.42,415.05 257.2,460.88 233.43,520.29 250.41,584.79 306.42,627.22 
		377.71,625.53 425.24,581.39 423.54,510.11 370.92,486.34 330.18,498.22 321.7,553.39 350.55,562.72 357.34,513.5 391.29,516.89 
		392.99,574.61 357.34,600.07 306.42,586.49 275.87,538.96 291.14,465.97 355.64,433.72 426.93,452.39 460.88,510.11 454.09,596.67 
		394.68,659.47 292.84,667.96 224.95,639.11 162.14,571.21 140.08,511.8 	"/>
	<polygon class="st1" points="544.05,553.39 625.53,503.32 676.45,435.42 707,355.64 696.82,260.59 639.11,167.24 544.05,134.99 
		450.7,148.57 391.29,224.95 382.8,299.63 411.66,374.32 481.25,416.75 572.91,399.78 623.83,344.19 605.16,250.55 544.9,213.07 
		479.55,226.64 450.7,286.05 472.76,323.39 516.89,323.39 532.17,287.75 486.34,299.63 479.55,263.99 535.57,240.22 584.79,284.36 
		579.7,344.19 498.22,381.11 433.72,331.88 420.14,243.62 477.86,172.33 555.93,168.93 634.01,219.86 671.36,308.12 654.38,416.75 	
		"/>
	<polygon class="st2" points="359.04,90.86 287.75,62 174.03,76.43 107.83,111.22 62,185.91 62,282.66 87.46,344.19 151.96,399.78 
		235.13,399.78 314.91,367.53 347.16,306.42 340.37,216.46 286.05,163.84 226.64,151.96 162.14,179.12 131.59,240.22 146.87,313.21 
		202.88,344.19 260.59,323.39 275.87,280.96 248.71,250.55 219.86,250.55 218.16,267.38 240.22,284.36 243.62,303.03 196.09,306.42 
		165.54,250.55 192.7,206.28 236.83,187.61 275.87,202.88 306.42,230.89 306.42,309.82 286.05,344.19 226.64,369.22 162.14,357.34 
		121.41,323.39 107.83,272.47 107.83,194.39 146.87,134.99 196.09,109.53 286.05,95.95 	"/>
</g>
</svg>
