<?xml version="1.0" encoding="utf-8"?>
<!-- Generator: Adobe Illustrator 26.0.2, SVG Export Plug-In . SVG Version: 6.00 Build 0)  -->
<svg version="1.1" xmlns="http://www.w3.org/2000/svg" xmlns:xlink="http://www.w3.org/1999/xlink" x="0px" y="0px"
	 viewBox="0 0 1920 1080" style="enable-background:new 0 0 1920 1080;" xml:space="preserve">
<style type="text/css">
	.st0{display:none;}
	.st1{display:inline;fill:#EFCFBE;}
	.st2{fill:#FFFFFF;}
	.st3{font-family:'Arial-Black';}
	.st4{font-size:165.1672px;}
	.st5{letter-spacing:30.88;}
	.st6{fill:#91B3DF;}
	.st7{fill:url(#SVGID_1_);}
	.st8{fill:url(#SVGID_00000105394807463168248740000001179745879845350806_);}
	.st9{fill:url(#SVGID_00000158018719650243035210000017123812717593946043_);}
	.st10{fill:url(#SVGID_00000008123732270298781940000000522430006533480833_);}
	.st11{fill:url(#SVGID_00000181800914703855758330000012590560492079065744_);}
	.st12{fill:url(#SVGID_00000047048668173792635210000004556274268757374870_);}
	.st13{fill:url(#SVGID_00000098219800287206618380000017258888780539103158_);}
	.st14{fill:url(#SVGID_00000095308179503428651080000016099232937489463438_);}
	.st15{fill:url(#SVGID_00000095321186775934104240000016255164043847601804_);}
	.st16{fill:url(#SVGID_00000117645282484382305890000009168061719643019191_);}
	.st17{fill:url(#SVGID_00000152971461655291531590000000023359585743824016_);}
	.st18{fill:url(#SVGID_00000115493207510091472430000008743347933248763788_);}
	.st19{fill:url(#SVGID_00000041261096138821003950000002682041743659503248_);}
	.st20{fill:url(#SVGID_00000045579687287749628650000007769791419838385286_);}
	.st21{fill:url(#SVGID_00000075153715211952048310000009989783975739856562_);}
	.st22{fill:url(#SVGID_00000061460745323403032950000016061731875846739081_);}
	.st23{fill:url(#SVGID_00000120549101251819190940000014828109697169876629_);}
	.st24{font-size:161.1983px;}
	.st25{letter-spacing:29.98;}
	.st26{fill:#5B97D8;}
	.st27{fill:url(#SVGID_00000143601613442361450080000013386950472051495555_);}
	.st28{fill:url(#SVGID_00000103973521662872359850000007573477218729852807_);}
</style>
<g id="Layer_2" class="st0">
	<rect class="st1" width="1920" height="1080"/>
</g>
<g id="Layer_3">
	<g>
		<g>
			<text transform="matrix(0.9392 0 0 1 368.999 489.3408)"><tspan x="0" y="0" class="st2 st3 st4 st5">				</tspan><tspan x="344.69" y="0" class="st2 st3 st4">Under</tspan><tspan x="0" y="220.22" class="st2 st3 st4"> Construction</tspan></text>
			<text transform="matrix(0.9392 0 0 1 368.999 489.3408)"><tspan x="0" y="0" class="st6 st3 st4 st5">				</tspan><tspan x="344.69" y="0" class="st2 st3 st4">Under</tspan><tspan x="0" y="220.22" class="st2 st3 st4"> Construction</tspan></text>
		</g>
		<rect x="704.18" y="316.09" class="st2" width="34.24" height="55.02"/>
		<polygon class="st2" points="721.3,252 670,316.09 704.18,316.09 738.42,316.09 771.09,316.09 		"/>
		<rect x="1480.27" y="709.56" class="st2" width="30.98" height="56.89"/>
		<polygon class="st2" points="1550.18,766.45 1511.25,766.45 1480.27,766.45 1446.92,766.45 1495.76,828.68 		"/>
	</g>
</g>
<g id="Layer_1">
	<g>
		<g>
			<g>
				<linearGradient id="SVGID_1_" gradientUnits="userSpaceOnUse" x1="386.7173" y1="553.3325" x2="1568.4053" y2="553.3325">
					<stop  offset="0" style="stop-color:#5B97D8"/>
					<stop  offset="1" style="stop-color:#91B3DF"/>
				</linearGradient>
				<path class="st7" d="M782.04,374.92h33.22v68.75c0,6.82-0.99,13.25-2.98,19.31c-1.99,6.06-5.1,11.35-9.34,15.89
					c-4.24,4.54-8.69,7.72-13.34,9.56c-6.47,2.57-14.24,3.85-23.3,3.85c-5.24,0-10.96-0.39-17.16-1.18
					c-6.2-0.79-11.38-2.35-15.55-4.68c-4.17-2.33-7.98-5.65-11.43-9.95c-3.45-4.3-5.82-8.73-7.09-13.29
					c-2.06-7.34-3.09-13.84-3.09-19.51v-68.75h33.22v70.38c0,6.29,1.63,11.21,4.89,14.75c3.26,3.54,7.78,5.31,13.56,5.31
					c5.73,0,10.23-1.74,13.49-5.23c3.26-3.49,4.89-8.43,4.89-14.82V374.92z"/>
				
					<linearGradient id="SVGID_00000155848442165561674430000003462409652335620287_" gradientUnits="userSpaceOnUse" x1="386.7173" y1="553.3325" x2="1568.4053" y2="553.3325">
					<stop  offset="0" style="stop-color:#5B97D8"/>
					<stop  offset="1" style="stop-color:#91B3DF"/>
				</linearGradient>
				<path style="fill:url(#SVGID_00000155848442165561674430000003462409652335620287_);" d="M835.33,406.71h27.86v13.62
					c4.16-5.56,8.38-9.54,12.64-11.92c4.26-2.39,9.46-3.58,15.58-3.58c8.28,0,14.76,2.64,19.44,7.91
					c4.68,5.27,7.02,13.42,7.02,24.44v53.13h-30.06v-45.97c0-5.25-0.91-8.96-2.72-11.14c-1.81-2.18-4.36-3.27-7.64-3.27
					c-3.63,0-6.57,1.47-8.82,4.41c-2.25,2.94-3.38,8.21-3.38,15.82v40.14h-29.92V406.71z"/>
				
					<linearGradient id="SVGID_00000082364505680157671940000001705579565511723163_" gradientUnits="userSpaceOnUse" x1="386.7173" y1="553.3325" x2="1568.4053" y2="553.3325">
					<stop  offset="0" style="stop-color:#5B97D8"/>
					<stop  offset="1" style="stop-color:#91B3DF"/>
				</linearGradient>
				<path style="fill:url(#SVGID_00000082364505680157671940000001705579565511723163_);" d="M1017.92,374.92v115.39h-28.01v-12.36
					c-3.92,5.25-7.5,8.79-10.73,10.63c-4.31,2.41-9.12,3.62-14.41,3.62c-10.63,0-18.76-4.33-24.37-12.99
					c-5.61-8.66-8.42-19.18-8.42-31.56c0-13.85,3.1-24.45,9.3-31.8c6.2-7.35,14.08-11.02,23.63-11.02c4.66,0,8.88,0.84,12.68,2.52
					c3.8,1.68,7.17,4.2,10.11,7.56v-39.98H1017.92z M987.93,448.27c0-6.56-1.3-11.45-3.9-14.68c-2.6-3.23-5.88-4.84-9.85-4.84
					c-3.48,0-6.39,1.55-8.75,4.64c-2.35,3.1-3.53,8.29-3.53,15.58c0,6.82,1.21,11.82,3.64,14.99c2.43,3.18,5.43,4.76,9,4.76
					c3.82,0,7.01-1.6,9.56-4.8C986.65,460.74,987.93,455.52,987.93,448.27z"/>
				
					<linearGradient id="SVGID_00000022521035904792651270000017100634497876884144_" gradientUnits="userSpaceOnUse" x1="386.7173" y1="553.3325" x2="1568.4053" y2="553.3325">
					<stop  offset="0" style="stop-color:#5B97D8"/>
					<stop  offset="1" style="stop-color:#91B3DF"/>
				</linearGradient>
				<path style="fill:url(#SVGID_00000022521035904792651270000017100634497876884144_);" d="M1122.81,456.46h-59.98
					c0.54,5.14,1.84,8.97,3.9,11.49c2.89,3.62,6.66,5.43,11.32,5.43c2.94,0,5.73-0.79,8.38-2.36c1.62-1,3.36-2.75,5.22-5.27
					l29.48,2.91c-4.51,8.4-9.95,14.42-16.32,18.06s-15.51,5.47-27.42,5.47c-10.34,0-18.48-1.56-24.4-4.68
					c-5.93-3.12-10.84-8.08-14.74-14.88c-3.9-6.79-5.84-14.78-5.84-23.97c0-13.07,3.91-23.64,11.72-31.72
					c7.82-8.08,18.61-12.12,32.38-12.12c11.17,0,19.99,1.81,26.46,5.43c6.47,3.62,11.39,8.87,14.77,15.74
					c3.38,6.88,5.07,15.82,5.07,26.84V456.46z M1092.38,441.11c-0.59-6.19-2.14-10.63-4.67-13.3c-2.52-2.68-5.84-4.01-9.96-4.01
					c-4.75,0-8.55,2.02-11.39,6.06c-1.81,2.52-2.97,6.27-3.46,11.26H1092.38z"/>
				
					<linearGradient id="SVGID_00000180326285164598884260000012876061321698241432_" gradientUnits="userSpaceOnUse" x1="386.7173" y1="553.3325" x2="1568.4053" y2="553.3325">
					<stop  offset="0" style="stop-color:#5B97D8"/>
					<stop  offset="1" style="stop-color:#91B3DF"/>
				</linearGradient>
				<path style="fill:url(#SVGID_00000180326285164598884260000012876061321698241432_);" d="M1136.85,406.71h28.01v13.7
					c2.69-5.93,5.48-10.01,8.34-12.24c2.87-2.23,6.41-3.35,10.62-3.35c4.41,0,9.24,1.47,14.48,4.41l-9.26,22.83
					c-3.53-1.57-6.32-2.36-8.38-2.36c-3.92,0-6.96,1.73-9.11,5.19c-3.09,4.88-4.63,14.01-4.63,27.39v28.02h-30.06V406.71z"/>
				
					<linearGradient id="SVGID_00000026871211616468513000000008704845089240057770_" gradientUnits="userSpaceOnUse" x1="386.7173" y1="553.3325" x2="1568.4053" y2="553.3325">
					<stop  offset="0" style="stop-color:#5B97D8"/>
					<stop  offset="1" style="stop-color:#91B3DF"/>
				</linearGradient>
				<path style="fill:url(#SVGID_00000026871211616468513000000008704845089240057770_);" d="M519.69,658.01l29.18,9.45
					c-1.96,8.76-5.05,16.08-9.26,21.96c-4.21,5.88-9.45,10.31-15.69,13.3s-14.2,4.49-23.85,4.49c-11.71,0-21.28-1.82-28.7-5.47
					c-7.42-3.64-13.83-10.05-19.22-19.23c-5.39-9.18-8.09-20.92-8.09-35.24c0-19.09,4.74-33.76,14.22-44.01
					c9.48-10.25,22.9-15.38,40.24-15.38c13.57,0,24.24,2.94,32.01,8.82c7.77,5.88,13.54,14.9,17.31,27.08l-29.4,7
					c-1.03-3.51-2.11-6.09-3.23-7.71c-1.86-2.73-4.14-4.83-6.84-6.3c-2.7-1.47-5.71-2.2-9.04-2.2c-7.55,0-13.33,3.25-17.35,9.75
					c-3.04,4.82-4.56,12.4-4.56,22.72c0,12.79,1.81,21.56,5.44,26.3c3.63,4.74,8.72,7.12,15.29,7.12c6.37,0,11.18-1.92,14.44-5.75
					C515.85,670.87,518.22,665.3,519.69,658.01z"/>
				
					<linearGradient id="SVGID_00000089568801559221990150000012000096677557889723_" gradientUnits="userSpaceOnUse" x1="386.7173" y1="553.3325" x2="1568.4053" y2="553.3325">
					<stop  offset="0" style="stop-color:#5B97D8"/>
					<stop  offset="1" style="stop-color:#91B3DF"/>
				</linearGradient>
				<path style="fill:url(#SVGID_00000089568801559221990150000012000096677557889723_);" d="M559.38,663.68
					c0-12.75,4.02-23.26,12.06-31.52c8.04-8.26,18.89-12.4,32.56-12.4c15.63,0,27.44,4.85,35.43,14.56
					c6.42,7.82,9.63,17.45,9.63,28.89c0,12.86-3.98,23.39-11.94,31.6c-7.96,8.21-18.98,12.32-33.04,12.32
					c-12.55,0-22.69-3.41-30.43-10.23C564.14,688.45,559.38,677.37,559.38,663.68z M589.37,663.6c0,7.45,1.41,12.96,4.23,16.53
					c2.82,3.57,6.36,5.35,10.62,5.35c4.31,0,7.85-1.76,10.62-5.27c2.77-3.52,4.15-9.16,4.15-16.92c0-7.24-1.4-12.63-4.19-16.17
					c-2.79-3.54-6.25-5.31-10.36-5.31c-4.36,0-7.96,1.8-10.81,5.39C590.79,650.78,589.37,656.25,589.37,663.6z"/>
				
					<linearGradient id="SVGID_00000123402257424160019360000001621764568349042590_" gradientUnits="userSpaceOnUse" x1="386.7173" y1="553.3325" x2="1568.4053" y2="553.3325">
					<stop  offset="0" style="stop-color:#5B97D8"/>
					<stop  offset="1" style="stop-color:#91B3DF"/>
				</linearGradient>
				<path style="fill:url(#SVGID_00000123402257424160019360000001621764568349042590_);" d="M663.47,621.65h27.86v13.62
					c4.16-5.56,8.38-9.54,12.64-11.93c4.26-2.39,9.46-3.58,15.58-3.58c8.28,0,14.76,2.64,19.44,7.91
					c4.68,5.27,7.02,13.42,7.02,24.44v53.13h-30.06v-45.97c0-5.25-0.91-8.96-2.72-11.14c-1.81-2.18-4.36-3.27-7.64-3.27
					c-3.63,0-6.57,1.47-8.82,4.41c-2.25,2.94-3.38,8.21-3.38,15.82v40.14h-29.92V621.65z"/>
				
					<linearGradient id="SVGID_00000065033192566306016090000000067478703085653942_" gradientUnits="userSpaceOnUse" x1="386.7173" y1="553.3325" x2="1568.4053" y2="553.3325">
					<stop  offset="0" style="stop-color:#5B97D8"/>
					<stop  offset="1" style="stop-color:#91B3DF"/>
				</linearGradient>
				<path style="fill:url(#SVGID_00000065033192566306016090000000067478703085653942_);" d="M758.58,682.02l29.7-2.99
					c1.22,3.78,2.94,6.48,5.15,8.11c2.21,1.63,5.14,2.44,8.82,2.44c4.02,0,7.13-0.92,9.33-2.75c1.71-1.36,2.57-3.06,2.57-5.11
					c0-2.3-1.13-4.09-3.38-5.35c-1.62-0.89-5.9-1.99-12.86-3.3c-10.39-1.94-17.6-3.73-21.65-5.38c-4.04-1.65-7.45-4.44-10.22-8.38
					c-2.77-3.93-4.15-8.41-4.15-13.45c0-5.5,1.49-10.25,4.48-14.23c2.99-3.98,7.1-6.96,12.35-8.92c5.24-1.97,12.28-2.95,21.1-2.95
					c9.31,0,16.18,0.76,20.62,2.28c4.44,1.52,8.13,3.88,11.1,7.08c2.96,3.2,5.43,7.53,7.39,12.99l-28.37,2.99
					c-0.74-2.68-1.96-4.64-3.68-5.9c-2.35-1.68-5.2-2.52-8.53-2.52c-3.38,0-5.84,0.64-7.39,1.93c-1.54,1.28-2.32,2.84-2.32,4.68
					c0,2.04,0.98,3.59,2.94,4.64c1.96,1.05,6.22,1.99,12.79,2.83c9.95,1.21,17.35,2.88,22.2,5.03c4.85,2.15,8.56,5.21,11.14,9.2
					c2.57,3.98,3.86,8.36,3.86,13.13c0,4.82-1.36,9.51-4.08,14.08c-2.72,4.56-7.01,8.19-12.86,10.89
					c-5.86,2.7-13.83,4.05-23.93,4.05c-14.26,0-24.42-2.18-30.47-6.53C764.18,696.24,760.3,690.04,758.58,682.02z"/>
				
					<linearGradient id="SVGID_00000012447357228855215190000003893148321447984016_" gradientUnits="userSpaceOnUse" x1="386.7173" y1="553.3325" x2="1568.4053" y2="553.3325">
					<stop  offset="0" style="stop-color:#5B97D8"/>
					<stop  offset="1" style="stop-color:#91B3DF"/>
				</linearGradient>
				<path style="fill:url(#SVGID_00000012447357228855215190000003893148321447984016_);" d="M891.92,589.85v31.8h16.46v23.46
					h-16.46v29.62c0,3.56,0.32,5.92,0.96,7.07c0.98,1.78,2.69,2.67,5.15,2.67c2.21,0,5.29-0.68,9.26-2.04l2.21,22.11
					c-7.4,1.73-14.31,2.6-20.73,2.6c-7.45,0-12.94-1.02-16.46-3.07s-6.14-5.15-7.83-9.32c-1.69-4.17-2.54-10.91-2.54-20.24v-29.4
					h-11.03v-23.46h11.03V606.3L891.92,589.85z"/>
				
					<linearGradient id="SVGID_00000095338170511663631490000018217986672810884499_" gradientUnits="userSpaceOnUse" x1="386.7173" y1="553.3325" x2="1568.4053" y2="553.3325">
					<stop  offset="0" style="stop-color:#5B97D8"/>
					<stop  offset="1" style="stop-color:#91B3DF"/>
				</linearGradient>
				<path style="fill:url(#SVGID_00000095338170511663631490000018217986672810884499_);" d="M922.94,621.65h28.01v13.7
					c2.69-5.93,5.48-10.01,8.34-12.24c2.87-2.23,6.41-3.34,10.62-3.34c4.41,0,9.24,1.47,14.48,4.41l-9.26,22.83
					c-3.53-1.57-6.32-2.36-8.38-2.36c-3.92,0-6.96,1.73-9.11,5.2c-3.09,4.88-4.63,14.01-4.63,27.39v28.02h-30.06V621.65z"/>
				
					<linearGradient id="SVGID_00000182517198727732248910000015745555464804419760_" gradientUnits="userSpaceOnUse" x1="386.7173" y1="553.3325" x2="1568.4053" y2="553.3325">
					<stop  offset="0" style="stop-color:#5B97D8"/>
					<stop  offset="1" style="stop-color:#91B3DF"/>
				</linearGradient>
				<path style="fill:url(#SVGID_00000182517198727732248910000015745555464804419760_);" d="M1071.72,705.24h-27.93V691.7
					c-4.17,5.56-8.37,9.52-12.61,11.89c-4.24,2.36-9.45,3.54-15.62,3.54c-8.23,0-14.69-2.64-19.37-7.91s-7.02-13.39-7.02-24.36
					v-53.21h30.06v45.97c0,5.25,0.91,8.97,2.72,11.18c1.81,2.21,4.36,3.31,7.64,3.31c3.58,0,6.5-1.47,8.78-4.41
					c2.28-2.94,3.42-8.21,3.42-15.82v-40.22h29.92V705.24z"/>
				
					<linearGradient id="SVGID_00000160877925776333174020000011302337806888706992_" gradientUnits="userSpaceOnUse" x1="386.7173" y1="553.3325" x2="1568.4053" y2="553.3325">
					<stop  offset="0" style="stop-color:#5B97D8"/>
					<stop  offset="1" style="stop-color:#91B3DF"/>
				</linearGradient>
				<path style="fill:url(#SVGID_00000160877925776333174020000011302337806888706992_);" d="M1148.09,672.49l28.45,3.46
					c-1.57,6.35-4.14,11.85-7.72,16.49c-3.58,4.64-8.15,8.25-13.71,10.82c-5.56,2.57-12.63,3.86-21.21,3.86
					c-8.28,0-15.18-0.83-20.69-2.48c-5.51-1.65-10.25-4.32-14.22-8.02c-3.97-3.7-7.08-8.03-9.34-13.01s-3.38-11.59-3.38-19.82
					c0-8.6,1.37-15.75,4.12-21.47c2.01-4.19,4.75-7.96,8.23-11.28s7.06-5.81,10.73-7.43c5.83-2.57,13.3-3.85,22.42-3.85
					c12.74,0,22.46,2.44,29.15,7.32c6.69,4.88,11.38,12.02,14.08,21.41l-28.15,4.01c-0.88-3.57-2.49-6.26-4.81-8.07
					c-2.33-1.81-5.45-2.72-9.37-2.72c-4.95,0-8.96,1.9-12.02,5.7c-3.06,3.8-4.59,9.55-4.59,17.25c0,6.86,1.52,12.07,4.56,15.63
					c3.04,3.56,6.91,5.34,11.61,5.34c3.92,0,7.21-1.08,9.89-3.23C1144.77,680.26,1146.77,676.95,1148.09,672.49z"/>
				
					<linearGradient id="SVGID_00000044141552360605116700000015200511982958566810_" gradientUnits="userSpaceOnUse" x1="386.7173" y1="553.3325" x2="1568.4053" y2="553.3325">
					<stop  offset="0" style="stop-color:#5B97D8"/>
					<stop  offset="1" style="stop-color:#91B3DF"/>
				</linearGradient>
				<path style="fill:url(#SVGID_00000044141552360605116700000015200511982958566810_);" d="M1226.37,589.85v31.8h16.46v23.46
					h-16.46v29.62c0,3.56,0.32,5.92,0.96,7.07c0.98,1.78,2.69,2.67,5.15,2.67c2.21,0,5.29-0.68,9.26-2.04l2.21,22.11
					c-7.4,1.73-14.31,2.6-20.73,2.6c-7.45,0-12.94-1.02-16.46-3.07s-6.14-5.15-7.83-9.32c-1.69-4.17-2.54-10.91-2.54-20.24v-29.4
					h-11.03v-23.46h11.03V606.3L1226.37,589.85z"/>
				
					<linearGradient id="SVGID_00000169525064705573944230000005689420871508967331_" gradientUnits="userSpaceOnUse" x1="386.7173" y1="553.3325" x2="1568.4053" y2="553.3325">
					<stop  offset="0" style="stop-color:#5B97D8"/>
					<stop  offset="1" style="stop-color:#91B3DF"/>
				</linearGradient>
				<path style="fill:url(#SVGID_00000169525064705573944230000005689420871508967331_);" d="M1258.2,589.85h29.92v21.8h-29.92
					V589.85z M1258.2,621.65h29.92v83.59h-29.92V621.65z"/>
				
					<linearGradient id="SVGID_00000129910165304575036270000003815351517774528656_" gradientUnits="userSpaceOnUse" x1="386.7173" y1="553.3325" x2="1568.4053" y2="553.3325">
					<stop  offset="0" style="stop-color:#5B97D8"/>
					<stop  offset="1" style="stop-color:#91B3DF"/>
				</linearGradient>
				<path style="fill:url(#SVGID_00000129910165304575036270000003815351517774528656_);" d="M1303.56,663.68
					c0-12.75,4.02-23.26,12.05-31.52c8.04-8.26,18.89-12.4,32.56-12.4c15.63,0,27.44,4.85,35.43,14.56
					c6.42,7.82,9.63,17.45,9.63,28.89c0,12.86-3.98,23.39-11.94,31.6c-7.96,8.21-18.98,12.32-33.04,12.32
					c-12.55,0-22.69-3.41-30.43-10.23C1308.31,688.45,1303.56,677.37,1303.56,663.68z M1333.55,663.6c0,7.45,1.41,12.96,4.23,16.53
					c2.82,3.57,6.36,5.35,10.62,5.35c4.31,0,7.85-1.76,10.62-5.27c2.77-3.52,4.15-9.16,4.15-16.92c0-7.24-1.4-12.63-4.19-16.17
					c-2.79-3.54-6.25-5.31-10.36-5.31c-4.36,0-7.96,1.8-10.81,5.39C1334.97,650.78,1333.55,656.25,1333.55,663.6z"/>
				
					<linearGradient id="SVGID_00000031898989893481759460000001563352985049373360_" gradientUnits="userSpaceOnUse" x1="386.7173" y1="553.3325" x2="1568.4053" y2="553.3325">
					<stop  offset="0" style="stop-color:#5B97D8"/>
					<stop  offset="1" style="stop-color:#91B3DF"/>
				</linearGradient>
				<path style="fill:url(#SVGID_00000031898989893481759460000001563352985049373360_);" d="M1407.64,621.65h27.86v13.62
					c4.16-5.56,8.38-9.54,12.64-11.93c4.26-2.39,9.46-3.58,15.58-3.58c8.28,0,14.76,2.64,19.44,7.91
					c4.68,5.27,7.02,13.42,7.02,24.44v53.13h-30.06v-45.97c0-5.25-0.91-8.96-2.72-11.14c-1.81-2.18-4.36-3.27-7.64-3.27
					c-3.63,0-6.57,1.47-8.82,4.41c-2.25,2.94-3.38,8.21-3.38,15.82v40.14h-29.92V621.65z"/>
			</g>
			<text transform="matrix(0.9339 0 0 1 386.7173 490.3052)"><tspan x="0" y="0" class="st6 st3 st24 st25">				</tspan><tspan x="336.41" y="0" class="st26 st3 st24">Under</tspan><tspan x="0" y="214.93" class="st26 st3 st24"> Construction</tspan></text>
		</g>
		
			<linearGradient id="SVGID_00000005958756319153311980000002409532017772243346_" gradientUnits="userSpaceOnUse" x1="728.5972" y1="374.916" x2="728.5972" y2="321.2223">
			<stop  offset="0" style="stop-color:#5B97D8"/>
			<stop  offset="1" style="stop-color:#91B3DF"/>
		</linearGradient>
		
			<rect x="711.98" y="321.22" style="fill:url(#SVGID_00000005958756319153311980000002409532017772243346_);" width="33.22" height="53.69"/>
		<polygon class="st6" points="728.6,258.67 678.82,321.22 711.98,321.22 745.21,321.22 776.91,321.22 		"/>
		
			<linearGradient id="SVGID_00000015356999571316972570000011139045839177928833_" gradientUnits="userSpaceOnUse" x1="1480.147" y1="705.2363" x2="1480.147" y2="760.7576">
			<stop  offset="0" style="stop-color:#5B97D8"/>
			<stop  offset="1" style="stop-color:#91B3DF"/>
		</linearGradient>
		
			<rect x="1465.12" y="705.24" style="fill:url(#SVGID_00000015356999571316972570000011139045839177928833_);" width="30.06" height="55.52"/>
		<polygon class="st6" points="1532.96,760.76 1495.18,760.76 1465.12,760.76 1432.75,760.76 1480.15,821.49 		"/>
	</g>
</g>
</svg>
