<?xml version="1.0" encoding="utf-8"?>
<!-- Generator: Adobe Illustrator 26.0.2, SVG Export Plug-In . SVG Version: 6.00 Build 0)  -->
<svg version="1.1" id="Layer_1" xmlns="http://www.w3.org/2000/svg" xmlns:xlink="http://www.w3.org/1999/xlink" x="0px" y="0px"
	 viewBox="0 0 768 768" style="enable-background:new 0 0 768 768;" xml:space="preserve">
<style type="text/css">
	.st0{fill:#0F6204;}
	.st1{fill:#206F12;}
</style>
<g>
	<polygon class="st0" points="439.45,423.45 319.54,417.42 285.6,332.19 355.74,243.95 474.15,281.66 468.11,386.5 360.26,392.53 
		343.67,317.86 416.83,295.24 428.14,360.85 384.4,352.56 386.66,333.7 409.29,341.24 410.04,312.58 362.52,328.42 373.08,375.18 
		452.28,369.15 454.54,290.71 360.26,265.82 311.24,333.7 331.6,403.84 440.21,409.88 	"/>
	<polygon class="st1" points="229.79,487.94 229.79,469.84 379.87,469.84 379.87,589 175.48,589 175.48,503.02 285.6,183.99 
		484.71,179.09 591.8,500.38 591.8,584.85 400.24,589 396.46,472.48 541.27,472.48 542.03,494.35 422.11,492.84 422.11,514.71 
		554.85,517.73 554.09,539.6 422.11,541.11 422.11,564.49 566.16,564.49 566.16,500.38 462.08,207 305.96,207 201.88,497.36 
		200.37,563.73 356.49,564.49 356.49,538.85 219.23,538.85 216.96,516.22 355.74,515.47 354.23,492.84 230.54,494.35 	"/>
</g>
</svg>
