<?xml version="1.0" encoding="utf-8"?>
<!-- Generator: Adobe Illustrator 26.0.2, SVG Export Plug-In . SVG Version: 6.00 Build 0)  -->
<svg version="1.1" id="Layer_1" xmlns="http://www.w3.org/2000/svg" xmlns:xlink="http://www.w3.org/1999/xlink" x="0px" y="0px"
	 viewBox="0 0 768 768" style="enable-background:new 0 0 768 768;" xml:space="preserve">
<style type="text/css">
	.st0{fill:#930000;}
</style>
<g>
	<polygon class="st0" points="178.06,668.29 138.23,658.73 107.96,620.49 98.4,567.91 111.14,520.11 138.23,473.91 138.23,389.47 
		117.52,333.7 189.21,349.63 244.98,389.47 273.66,277.94 348.54,223.77 399.56,120.2 399.56,74 476,159.24 452.1,294.46 
		464.85,407.79 523.8,273.95 617.8,199.07 606.65,283.51 617.8,371.14 686.31,512.94 668.79,618.1 614.61,657.93 651.26,586.23 
		649.67,474.71 593.9,401.42 573.19,313.79 574.78,253.24 528.58,320.16 501.49,414.16 466.44,442.84 420.24,391.86 410.68,323.35 
		440.95,248.46 444.14,175.17 421.83,127.37 399.56,189.51 343.76,261.21 291.18,326.53 276.84,401.42 272.06,450.81 243.38,466.74 
		221.08,409.38 171.69,371.14 163.72,463.55 136.64,551.18 139.82,611.73 	"/>
	<polygon class="st0" points="195.59,410.97 195.59,535.25 187.62,635.62 248.16,704.13 345.35,736 466.44,728.03 566.82,657.93 
		608.24,573.49 576.38,441.25 550.88,316.97 539.73,377.52 547.7,452.4 571.6,544.81 559.88,596.54 552.48,629.25 499.9,683.42 
		413.86,707.32 327.83,704.13 257.72,677.05 224.27,634.03 209.93,575.08 224.27,461.96 	"/>
	<polygon class="st0" points="232.44,438.6 246.57,517.72 265.69,619.69 321.45,668.29 437.76,675.46 519.02,606.95 536.54,526.49 
		493.53,396.64 446.08,420.37 498.31,485.86 495.12,591.01 421.83,645.18 324.64,634.03 278.44,554.37 321.45,474.71 413.86,463.55 
		455.29,526.49 421.83,591.01 346.95,589.42 359.69,526.49 407.49,536.05 366.07,560.74 413.86,568.71 428.2,511.35 369.25,492.23 
		311.89,536.05 326.23,603.76 397.93,629.25 468.03,584.64 479.19,516.13 447.32,453.99 384.49,430.09 356.51,356.8 428.2,216.6 
		321.45,363.18 338.98,434.87 278.44,471.52 276.84,401.42 	"/>
</g>
</svg>
