<?xml version="1.0" encoding="utf-8"?>
<!-- Generator: Adobe Illustrator 26.0.2, SVG Export Plug-In . SVG Version: 6.00 Build 0)  -->
<svg version="1.1" id="Layer_1" xmlns="http://www.w3.org/2000/svg" xmlns:xlink="http://www.w3.org/1999/xlink" x="0px" y="0px"
	 viewBox="0 0 768 768" style="enable-background:new 0 0 768 768;" xml:space="preserve">
<style type="text/css">
	.st0{fill:#0D2677;}
	.st1{fill:#04226E;}
	.st2{fill:#001F70;}
	.st3{fill:#0C1B78;}
</style>
<g>
	<path class="st0" d="M646.58,274.3l-63.59-98.08l-89.47-46.86L387.57,113l-115.28,21.79l-97.01,70.86L118.6,310.94l-7.61,119.2
		l31.61,114.44l90.44,78.47L343.12,656h117.69l105.72-49.31l74.11-93.72l2.98-21.35l2.18-15.65l6.87-49.17l4.93-35.16L646.58,274.3z
		 M618.09,475.96L614.74,500l-2.11,2.65l-64.49,81.62l-95.03,44.28H347.27l-3.52-1.04l-95.43-28.56l-15.72-13.61l-46.29-40.19
		L167,528.42l-5.83-21.12l-12.03-43.68l-10.53-38.08l6.47-101.43l0.37-5.73l27.02-50.21l23.93-44.45l56.55-41.3l14.61-10.69
		l16.02-11.7l11.3-2.15l19.31-3.65l1.84-0.34l71.2-13.48l95.27,14.72l49.54,25.95l30.87,16.19l18.2,28.09l38.95,60.07l3.18,34.02
		l2.58,27.29l4.16,44.18l-0.3,2.08l-4.32,30.91L618.09,475.96z"/>
	<g>
		<polygon class="st1" points="640.57,319.47 582.18,319.47 498.66,342.98 420.81,395.01 354.32,457.32 274.85,490.57 
			185.65,486.51 124.83,448.4 131.7,501.92 233.49,520.57 288.63,514.09 367.29,475.97 420.81,428.13 485.68,373.8 543.26,351.09 
			650.3,345.42 		"/>
		<polygon class="st2" points="657.61,391.62 652.68,426.79 625.36,423.9 588.66,420.01 532.71,437.85 466.21,492.18 366.48,559.49 
			252.14,590.3 232.6,585.34 172.67,570.05 149.97,532.74 186.31,545.15 247.28,566 351.06,543.27 450.02,473.55 525.4,411.9 
			588.66,395.01 629.69,393 		"/>
		<polygon class="st2" points="222.95,611.39 344.59,627.61 425.68,595.18 525.42,505.17 580.56,475.97 646.58,475.97 
			641.38,503.54 588.67,501.92 535.96,528.68 467.03,590.31 426.49,627.61 355.94,655.99 		"/>
		<polygon class="st3" points="149.97,275.68 215.65,253.79 275.66,264.73 299.18,279.73 338.1,249.73 389.14,253.79 420,279.73 
			420,330.82 389.14,351.9 364.05,347.04 351.88,329.2 348.64,312.17 380.27,300.82 377.83,334.06 403.78,319.47 403.78,294.33 
			369.72,274.87 334.04,279.73 316.2,300.82 337.29,362.45 376.21,378.66 425.68,354.34 446.76,302.44 420.81,230.27 359.99,187.29 
			289.44,182.43 246.47,182.43 305.66,152.42 373.78,167.02 424.87,199.45 440.27,219.73 489.74,192.97 534.34,221.35 
			543.26,259.46 518.12,286.22 486.49,282.17 480.82,257.03 501.09,235.13 510.01,270 525.42,242.43 504.33,220.54 471.09,218.92 
			452.44,235.95 460.55,280.54 495.41,308.93 543.26,295.95 561.91,255.41 547.31,208.37 524.61,167.83 582.99,206.75 578.94,247.3 
			565.96,295.14 535.96,319.47 497.85,327.58 470.28,315.41 451.63,355.15 415.95,385.15 366.48,395.01 336.48,391.64 308.1,440.29 
			271.6,469.49 207.54,469.49 171.86,438.67 155.65,395.01 175.11,347.85 222.95,326.77 269.98,342.17 280.52,360.01 279.71,414.34 
			242.41,428.13 215.65,411.91 222.95,377.04 241.6,409.48 267.55,366.5 229.44,351.9 190.51,374.61 186.46,420.02 216.46,449.21 
			266.74,445.97 309.72,395.01 310.53,345.42 291.07,310.95 254.58,282.98 204.3,282.17 158.89,304.06 124.83,353.53 		"/>
	</g>
</g>
<polygon class="st0" points="318.42,154.11 270.83,149.36 238.04,184.78 246.47,182.43 255.49,182.43 "/>
</svg>
